<svg width="391" height="416" viewBox="0 0 391 416" fill="none" xmlns="http://www.w3.org/2000/svg">
<path opacity="0.01" d="M171.016 371.6C127.116 372.8 103.316 350.5 109.616 306.6C110.016 304.4 113.316 300.4 116.716 301C137.416 304.7 157.416 297.3 169.616 280C180.716 266.3 190.216 251.4 197.216 235.2C200.616 226.7 213.616 226.4 219.316 226.7C225.016 227 250.216 227.6 246.716 241.9C240.616 266.8 236.216 292.3 240.916 317.6C243.416 330.9 238.416 345 229.216 354.9C219.216 365.3 183.516 371.5 171.016 371.6Z" fill="#FF6000"/>
<path opacity="0.01" d="M54.0165 211.2C53.3165 186.1 75.0165 141 102.216 151.6C107.216 153.6 111.416 157.2 114.316 161.8C130.116 186.6 154.816 198.9 184.816 191.7C189.016 190.8 192.716 195.1 191.416 198.9C189.116 205.6 186.516 212.3 183.916 218.9C183.616 219.7 183.216 220.5 182.816 221.3C169.616 247.1 149.616 297.9 113.616 282.3C81.4165 268.3 54.9165 249.5 54.0165 211.2Z" fill="#FF54D4"/>
<path opacity="0.01" d="M149.516 44C174.216 44.7 211.316 44.3 229.016 63.7C244.016 80.5 237.616 104.5 234.816 124.6C229.116 178.2 164.916 186.4 130.116 153.9C119.816 145.6 116.116 131.7 104.616 124.8C79.5157 109.7 71.2157 68.1 98.9157 51.4C111.816 43.7 134.616 44.1 149.516 44Z" fill="#322E81"/>
<path opacity="0.01" d="M361.817 179.7C361.817 180.6 361.817 181.5 361.817 182.4C361.017 194.3 356.517 213.9 342.717 213.2C320.817 212.1 298.217 204.7 280.117 191.6C253.717 171.1 253.617 132.6 253.117 101.7C253.117 99.1996 253.417 96.6997 254.117 94.3997C260.917 73.3997 291.117 90.7996 304.917 99.6996C305.817 100.3 306.617 100.9 307.417 101.6C331.517 122 360.017 146.6 361.817 179.7Z" fill="#197A56"/>
<path opacity="0.01" d="M305.017 329.6C333.349 329.6 356.317 306.632 356.317 278.3C356.317 249.968 333.349 227 305.017 227C276.685 227 253.717 249.968 253.717 278.3C253.717 306.632 276.685 329.6 305.017 329.6Z" fill="#EFAE00"/>
<path opacity="0.01" d="M246.857 220.295C232.357 219.995 217.257 213.895 207.957 202.395C206.857 201.095 205.957 199.595 205.357 197.995C199.257 182.195 214.757 169.895 231.157 173.695C241.457 176.095 254.357 182.895 261.857 191.195C263.357 192.795 264.557 194.695 265.257 196.795C269.257 208.195 259.857 221.595 246.857 220.295Z" fill="#323232"/>
</svg>
