<svg width="32" height="32" viewBox="0 0 24 24" fill="none" xmlns="http://www.w3.org/2000/svg">
<g clip-path="url(#clip0_3317_1909)">
<path d="M5.6745 2.75238H18.3282C19.8267 2.75238 21.0414 3.96709 21.0414 5.46551V18.1193C21.0414 19.6177 19.8267 20.8324 18.3282 20.8324H5.6745C4.17608 20.8324 2.96137 19.6177 2.96137 18.1193V5.46551C2.96137 3.96709 4.17608 2.75238 5.6745 2.75238Z" fill="white" stroke="#323232" stroke-width="1.12"/>
<path d="M12.0431 17.6348L12.0176 21.0002" stroke="#323232" stroke-width="0.815934" stroke-miterlimit="10"/>
<path d="M10.6645 7.27615V5.77246C10.6645 5.77246 10.7669 5.55762 10.8948 5.55762H13.0958C13.2237 5.55762 13.3261 5.65312 13.3261 5.77246V7.27615" fill="#323232"/>
<path d="M14.1441 7.80227H9.81898C9.38391 7.80227 9 8.13645 9 8.56608V17.111C9 17.5167 9.35831 17.8748 9.81898 17.8748H14.1441C14.5792 17.8748 14.9631 17.5406 14.9631 17.111V8.56608C14.9631 8.16032 14.6048 7.80227 14.1441 7.80227ZM13.0692 12.6237L11.764 14.7002C11.764 14.7002 11.6105 14.8435 11.5081 14.8435C11.4569 14.8435 11.4057 14.8435 11.3545 14.7957C11.201 14.7241 11.1498 14.5332 11.2522 14.4138L12.2758 12.7669H11.1242C11.1242 12.7669 10.9195 12.7192 10.8683 12.6237C10.8171 12.5282 10.8171 12.4328 10.8683 12.3373L12.0711 10.2846C12.1479 10.1414 12.3527 10.0937 12.4806 10.1653C12.6342 10.2369 12.6853 10.404 12.6086 10.5472L11.6616 12.1702H12.8133C12.8133 12.1702 13.018 12.2179 13.0692 12.3134C13.1204 12.4089 13.1204 12.5044 13.0692 12.5999V12.6237Z" fill="#323232"/>
</g>
<defs>
<clipPath id="clip0_3317_1909">
<rect width="19.2" height="19.6151" fill="white" transform="translate(2.40039 2.19238)"/>
</clipPath>
</defs>
</svg>
