<svg width="32" height="32" viewBox="0 0 24 24" fill="none" xmlns="http://www.w3.org/2000/svg">
<g clip-path="url(#clip0_3317_3079)">
<path d="M17.9593 2.95703H6.04171C4.33917 2.95703 2.95898 4.33721 2.95898 6.03975V17.9574C2.95898 19.6599 4.33917 21.0401 6.04171 21.0401H17.9593C19.6619 21.0401 21.0421 19.6599 21.0421 17.9574V6.03975C21.0421 4.33721 19.6619 2.95703 17.9593 2.95703Z" fill="white" stroke="#323232" stroke-width="1.11693" stroke-miterlimit="10"/>
<path d="M12 7C9.24518 7 7 9.24518 7 12C7 14.7548 9.24518 17 12 17C14.7548 17 17 14.7548 17 12C17 9.24518 14.7548 7 12 7ZM12.0551 8.19835C12.1653 8.08815 12.3444 8.08815 12.4545 8.19835L13.0193 8.76309C13.1295 8.87328 13.1295 9.05234 13.0193 9.16253C12.9642 9.21763 12.8953 9.24518 12.8127 9.24518C12.73 9.24518 12.6612 9.21763 12.6061 9.16253L12.0413 8.5978C11.9311 8.4876 11.9311 8.30854 12.0413 8.19835H12.0551ZM9.38292 11.4215C9.38292 11.4215 9.25895 11.5041 9.17631 11.5041C9.09366 11.5041 9.02479 11.4766 8.9697 11.4215L8.40496 10.8567C8.29477 10.7466 8.29477 10.5675 8.40496 10.4573C8.51515 10.3471 8.69421 10.3471 8.80441 10.4573L9.36915 11.022C9.47934 11.1322 9.47934 11.3113 9.36915 11.4215H9.38292ZM9.97521 9.87879C9.90634 9.87879 9.82369 9.85124 9.7686 9.79614C9.6584 9.68595 9.6584 9.50689 9.7686 9.39669L10.3333 8.83196C10.4435 8.72176 10.6226 8.72176 10.7328 8.83196C10.843 8.94215 10.843 9.12121 10.7328 9.23141L10.168 9.79614C10.168 9.79614 10.0441 9.87879 9.96143 9.87879H9.97521ZM10.168 14.3278L9.60331 14.8926C9.60331 14.8926 9.47934 14.9752 9.39669 14.9752C9.31405 14.9752 9.24518 14.9477 9.19008 14.8926C9.07989 14.7824 9.07989 14.6033 9.19008 14.4931L9.75482 13.9284C9.86501 13.8182 10.0441 13.8182 10.1543 13.9284C10.2645 14.0386 10.2645 14.2176 10.1543 14.3278H10.168ZM11.8347 15.168L11.27 15.7328C11.27 15.7328 11.146 15.8154 11.0634 15.8154C10.9807 15.8154 10.9118 15.7879 10.8567 15.7328C10.7466 15.6226 10.7466 15.4435 10.8567 15.3333L11.4215 14.7686C11.5317 14.6584 11.7107 14.6584 11.8209 14.7686C11.9311 14.8788 11.9311 15.0579 11.8209 15.168H11.8347ZM12 13.3912C11.2287 13.3912 10.595 12.7576 10.595 11.9862C10.595 11.2149 11.2287 10.5813 12 10.5813C12.7713 10.5813 13.405 11.2149 13.405 11.9862C13.405 12.7576 12.7713 13.3912 12 13.3912ZM13.7631 15.2231H13.1983C13.0468 15.2231 12.9091 15.0992 12.9091 14.9339C12.9091 14.7686 13.0331 14.6446 13.1983 14.6446H13.7631C13.9146 14.6446 14.0523 14.7686 14.0523 14.9339C14.0523 15.0992 13.9284 15.2231 13.7631 15.2231ZM9.02479 13.0193H8.46005C8.30854 13.0193 8.1708 12.8953 8.1708 12.73C8.1708 12.5647 8.29477 12.4408 8.46005 12.4408H9.02479C9.17631 12.4408 9.31405 12.5647 9.31405 12.73C9.31405 12.8953 9.19008 13.0193 9.02479 13.0193ZM14.3416 10.2782C14.2727 10.2782 14.1901 10.2507 14.135 10.1956C14.0248 10.0854 14.0248 9.90634 14.135 9.79614L14.6997 9.23141C14.8099 9.12121 14.989 9.12121 15.0992 9.23141C15.2094 9.3416 15.2094 9.52066 15.0992 9.63085L14.5344 10.1956C14.5344 10.1956 14.4105 10.2782 14.3278 10.2782H14.3416ZM14.7686 11.6694C14.7686 11.5179 14.8926 11.3802 15.0579 11.3802H15.6226C15.7741 11.3802 15.9118 11.5041 15.9118 11.6694C15.9118 11.8347 15.7879 11.9587 15.6226 11.9587H15.0579C14.9063 11.9587 14.7686 11.8347 14.7686 11.6694ZM14.6997 13.9559C14.6997 13.9559 14.5758 14.0386 14.4931 14.0386C14.4105 14.0386 14.3416 14.011 14.2865 13.9559C14.1763 13.8457 14.1763 13.6667 14.2865 13.5565L14.8512 12.9917C14.9614 12.8815 15.1405 12.8815 15.2507 12.9917C15.3609 13.1019 15.3609 13.281 15.2507 13.3912L14.6859 13.9559H14.6997Z" fill="#323232"/>
</g>
<defs>
<clipPath id="clip0_3317_3079">
<rect width="19.2" height="19.2" fill="white" transform="translate(2.40039 2.40039)"/>
</clipPath>
</defs>
</svg>
