<svg width="32" height="32" viewBox="0 0 24 24" fill="none" xmlns="http://www.w3.org/2000/svg">
<g clip-path="url(#clip0_3317_2026)">
<path d="M17.9593 2.95703H6.04171C4.33917 2.95703 2.95898 4.33721 2.95898 6.03975V17.9574C2.95898 19.6599 4.33917 21.0401 6.04171 21.0401H17.9593C19.6619 21.0401 21.0421 19.6599 21.0421 17.9574V6.03975C21.0421 4.33721 19.6619 2.95703 17.9593 2.95703Z" fill="white" stroke="#323232" stroke-width="1.11693" stroke-miterlimit="10"/>
<path d="M7.10156 14.909C7.10156 15.4004 7.50366 15.8249 8.01744 15.8249H15.9811C16.5061 15.8249 16.897 15.4004 16.897 14.909V14.6074H7.10156V14.909Z" fill="#323232"/>
<path d="M15.3667 8.4754H14.4508V8.17383H8.33008V12.4628C8.33008 13.3229 9.00024 13.993 9.86027 13.993H12.9207C13.535 13.993 14.0823 13.6244 14.328 13.0771H15.3667C16.2268 13.0771 16.8969 12.407 16.8969 11.547V10.0168C16.8969 9.15673 16.2268 8.48657 15.3667 8.48657V8.4754ZM15.3667 11.8485H14.4508V9.70402H15.3667C15.5454 9.70402 15.6683 9.82688 15.6683 10.0056V11.5358C15.6683 11.7145 15.5454 11.8374 15.3667 11.8374V11.8485Z" fill="#323232"/>
</g>
<defs>
<clipPath id="clip0_3317_2026">
<rect width="19.2" height="19.2" fill="white" transform="translate(2.40039 2.40039)"/>
</clipPath>
</defs>
</svg>
