<svg width="32" height="32" viewBox="0 0 24 24" fill="none" xmlns="http://www.w3.org/2000/svg">
<g clip-path="url(#clip0_3317_1981)">
<path d="M17.9593 2.95801H6.04171C4.33917 2.95801 2.95898 4.33819 2.95898 6.04073V17.9584C2.95898 19.6609 4.33917 21.0411 6.04171 21.0411H17.9593C19.6619 21.0411 21.0421 19.6609 21.0421 17.9584V6.04073C21.0421 4.33819 19.6619 2.95801 17.9593 2.95801Z" fill="white" stroke="#323232" stroke-width="1.11693" stroke-miterlimit="10"/>
<path d="M16.2253 7.28137V16.1051C16.2253 16.6412 15.7785 17.0768 15.2424 17.0657C14.7174 17.0657 14.293 16.6189 14.293 16.0828V13.0224H13.1202C12.9415 13.0224 12.7852 12.866 12.7852 12.6873V9.63809C12.7852 8.16374 13.9914 6.94629 15.477 6.94629H15.8902C16.0801 6.94629 16.2253 7.09149 16.2253 7.28137Z" fill="#323232"/>
<path d="M11.2097 7.28137V10.5651C11.2097 11.0901 10.8969 11.548 10.4613 11.7714V16.1051C10.4613 16.6301 10.0257 17.0657 9.4896 17.0657C8.95348 17.0657 8.51787 16.6301 8.51787 16.1051V11.7714C8.08227 11.548 7.76953 11.1013 7.76953 10.5651V7.28137C7.76953 7.10266 7.91473 6.94629 8.10461 6.94629H8.49553V9.1243C8.49553 9.25833 8.60723 9.38119 8.75243 9.38119H8.85295C8.98698 9.38119 9.10985 9.2695 9.10985 9.1243V6.94629H9.86936V9.1243C9.86936 9.25833 9.98105 9.38119 10.1263 9.38119H10.2268C10.3608 9.38119 10.4837 9.2695 10.4837 9.1243V6.94629H10.8746C11.0533 6.94629 11.2097 7.09149 11.2097 7.28137Z" fill="#323232"/>
</g>
<defs>
<clipPath id="clip0_3317_1981">
<rect width="19.2" height="19.2" fill="white" transform="translate(2.40039 2.40039)"/>
</clipPath>
</defs>
</svg>
