<svg width="32" height="32" viewBox="0 0 24 24" fill="none" xmlns="http://www.w3.org/2000/svg">
<g clip-path="url(#clip0_3317_1463)">
<path d="M17.9593 2.95898H6.04171C4.33917 2.95898 2.95898 4.33917 2.95898 6.04171V17.9593C2.95898 19.6619 4.33917 21.0421 6.04171 21.0421H17.9593C19.6619 21.0421 21.0421 19.6619 21.0421 17.9593V6.04171C21.0421 4.33917 19.6619 2.95898 17.9593 2.95898Z" fill="white" stroke="#323232" stroke-width="1.11693" stroke-miterlimit="10"/>
<path d="M15.0777 8.56396C15.0777 8.56396 14.966 8.47461 14.8879 8.47461H8.57721C8.51019 8.47461 8.43201 8.50812 8.38733 8.56396C8.34265 8.61981 8.32031 8.68683 8.32031 8.76501L9.32555 17.8233C9.33672 17.9462 9.44841 18.0467 9.57127 18.0467H13.8603C13.9831 18.0467 14.0948 17.9462 14.106 17.8233L15.1112 8.76501C15.1112 8.69799 15.1001 8.61981 15.0442 8.56396H15.0777ZM14.4076 10.7643H9.05749L8.85644 8.9884H14.5974L14.3964 10.7643H14.4076Z" fill="#323232"/>
<path d="M15.2231 6.00751C13.8604 5.8288 12.5983 6.80053 12.4307 8.17435C12.4196 8.27488 12.4307 8.3754 12.4307 8.48709H12.9445C12.9445 8.40891 12.9334 8.33072 12.9445 8.24137C12.978 7.96214 13.0674 7.70524 13.2014 7.48186L14.43 8.48709H14.8992C14.9662 8.48709 15.0444 8.5206 15.089 8.57645C15.1337 8.63229 15.1561 8.69931 15.1561 8.7775L15.1225 9.0679L16.2506 9.98378C15.9044 10.2965 15.4576 10.4752 14.9662 10.4864L14.9103 10.989C16.1613 10.989 17.2447 10.0843 17.4011 8.811C17.5798 7.43718 16.6081 6.18622 15.2342 6.01868L15.2231 6.00751ZM14.6981 8.07383L13.4918 7.09093C13.8604 6.72235 14.3519 6.51013 14.8992 6.51013L14.6981 8.07383ZM15.4018 6.56598C15.9267 6.70001 16.3512 7.03509 16.6081 7.47069L15.2007 8.15202L15.4018 6.56598ZM16.8873 8.74399C16.8426 9.05673 16.7309 9.34713 16.5634 9.59285L15.3794 8.63229L16.8203 7.9398C16.8985 8.19669 16.9208 8.46476 16.8873 8.74399Z" fill="#323232"/>
</g>
<defs>
<clipPath id="clip0_3317_1463">
<rect width="19.2" height="19.2" fill="white" transform="translate(2.40039 2.40039)"/>
</clipPath>
</defs>
</svg>
