<svg width="32" height="32" viewBox="0 0 24 24" fill="none" xmlns="http://www.w3.org/2000/svg">
<g clip-path="url(#clip0_3317_3373)">
<path d="M17.9593 2.95898H6.04171C4.33917 2.95898 2.95898 4.33917 2.95898 6.04171V17.9593C2.95898 19.6619 4.33917 21.0421 6.04171 21.0421H17.9593C19.6619 21.0421 21.0421 19.6619 21.0421 17.9593V6.04171C21.0421 4.33917 19.6619 2.95898 17.9593 2.95898Z" fill="white" stroke="#323232" stroke-width="1.11693" stroke-miterlimit="10"/>
<path d="M10.1603 17.7903H12.9973C13.1425 17.7903 13.2653 17.6786 13.2877 17.5334L13.9131 12.4961H9.11035L9.85869 17.5446C9.88103 17.6898 10.0039 17.7903 10.1491 17.7903H10.1603Z" fill="#323232"/>
<path d="M8.85425 11.0684H14.1708C14.1708 11.0684 14.2155 11.0907 14.2155 11.113V12.0401C14.2155 12.0401 14.1932 12.0848 14.1708 12.0848H8.85425C8.85425 12.0848 8.80957 12.0624 8.80957 12.0401V11.113C8.80957 11.113 8.83191 11.0684 8.85425 11.0684Z" fill="#323232"/>
<path d="M15.1757 7.25924C15.2204 7.15871 15.1757 7.04702 15.0752 7.00234L13.5562 6.32102C13.2322 6.17582 12.8637 6.18699 12.5509 6.34336C12.2382 6.49973 12.0036 6.79013 11.9254 7.13638L11.6015 8.62189C11.6015 8.62189 11.5569 8.62189 11.5345 8.62189C10.9425 8.62189 10.3617 8.85645 9.93731 9.26971C9.55755 9.6383 9.323 10.1409 9.27832 10.677H13.7907C13.746 10.1968 13.5562 9.73882 13.2322 9.37023C12.9083 9.01282 12.4727 8.75592 12.0036 8.66657L12.3275 7.21456C12.3834 6.98001 12.5286 6.79013 12.7408 6.67844C12.953 6.57791 13.1987 6.56674 13.411 6.66727L14.93 7.34859C15.0305 7.39327 15.1422 7.34859 15.1869 7.24807L15.1757 7.25924Z" fill="#323232"/>
</g>
<defs>
<clipPath id="clip0_3317_3373">
<rect width="19.2" height="19.2" fill="white" transform="translate(2.40039 2.40039)"/>
</clipPath>
</defs>
</svg>
