<svg width="32" height="32" viewBox="0 0 24 24" fill="none" xmlns="http://www.w3.org/2000/svg">
<g clip-path="url(#clip0_3317_1529)">
<path d="M5.67352 3.00039H18.3273C19.8036 3.00039 21.0004 4.19719 21.0004 5.67352V18.3273C21.0004 19.8036 19.8036 21.0004 18.3273 21.0004H5.67352C4.19719 21.0004 3.00039 19.8036 3.00039 18.3273V5.67352C3.00039 4.19719 4.19719 3.00039 5.67352 3.00039Z" fill="white" stroke="#323232" stroke-width="1.2"/>
<path d="M14.4613 10.7015C15.3151 10.7015 16.003 10.0136 16.003 9.15977C16.003 8.30591 15.3151 7.61807 14.4613 7.61807C13.6074 7.61807 12.9196 8.30591 12.9196 9.15977C12.9196 10.0136 13.6074 10.7015 14.4613 10.7015ZM14.4613 8.09244C15.0542 8.09244 15.5286 8.56681 15.5286 9.15977C15.5286 9.75273 15.0542 10.2271 14.4613 10.2271C13.8683 10.2271 13.3939 9.75273 13.3939 9.15977C13.3939 8.56681 13.8683 8.09244 14.4613 8.09244ZM7.66595 8.17546C7.66595 7.51134 8.21147 6.96582 8.87559 6.96582C9.5397 6.96582 10.0852 7.51134 10.0852 8.17546C10.0852 8.83957 9.5397 9.38509 8.87559 9.38509C8.21147 9.38509 7.66595 8.83957 7.66595 8.17546ZM19.1338 13.5832H17.1296V17.0343H16.6552V13.1919C16.6552 12.2313 15.8725 11.4604 14.9238 11.4604H14.3071C13.3465 11.4604 12.5756 12.2432 12.5756 13.1919V17.0343H12.1013V13.5832H4.86719V13.1089H6.91882V11.5909C6.91882 10.5829 7.73711 9.76459 8.74514 9.76459H9.0179C10.0259 9.76459 10.8442 10.5829 10.8442 11.5909V13.1089H12.1131C12.1606 11.9348 13.133 10.9861 14.3189 10.9861H14.9356C16.1215 10.9861 17.094 11.9348 17.1414 13.1089H19.1456V13.5832H19.1338Z" fill="#323232"/>
</g>
<defs>
<clipPath id="clip0_3317_1529">
<rect width="19.2" height="19.2" fill="white" transform="translate(2.40039 2.40039)"/>
</clipPath>
</defs>
</svg>
