<svg width="32" height="32" viewBox="0 0 24 24" fill="none" xmlns="http://www.w3.org/2000/svg">
<g clip-path="url(#clip0_3317_2047)">
<path d="M17.9593 2.95898H6.04171C4.33917 2.95898 2.95898 4.33917 2.95898 6.04171V17.9593C2.95898 19.6619 4.33917 21.0421 6.04171 21.0421H17.9593C19.6619 21.0421 21.0421 19.6619 21.0421 17.9593V6.04171C21.0421 4.33917 19.6619 2.95898 17.9593 2.95898Z" fill="white" stroke="#323232" stroke-width="1.11693" stroke-miterlimit="10"/>
<path d="M15.1102 9.63911C15.1102 9.33754 14.9873 9.05831 14.7639 8.83493C14.6299 8.70089 14.4735 8.60037 14.3172 8.54452V8.46634C14.3172 7.84086 14.0714 7.27123 13.6358 6.83562C13.2002 6.40002 12.6083 6.16547 12.0051 6.1543C11.3796 6.1543 10.81 6.40002 10.3744 6.83562C9.9388 7.27123 9.70425 7.8632 9.69308 8.46634V8.54452C9.52554 8.60037 9.36917 8.67855 9.22397 8.81259C9.00058 9.03597 8.87772 9.3152 8.90006 9.62794C8.90006 9.92951 9.01175 10.2311 9.22397 10.4433C9.43618 10.6555 9.72659 10.7896 10.0282 10.7896H13.9486C14.2501 10.7896 14.5517 10.6779 14.7639 10.4656C14.9761 10.2534 15.1102 9.92951 15.1102 9.63911Z" fill="#323232"/>
<path d="M12.3745 17.5345L14.2397 11.5254C14.1392 11.5366 14.061 11.5366 13.9717 11.5477H10.0513C9.97308 11.5477 9.87256 11.5366 9.7832 11.5254L11.6485 17.5903C11.6596 17.6573 11.7043 17.702 11.749 17.7355C11.8942 17.8807 12.1399 17.8807 12.2963 17.7355C12.3521 17.6797 12.3968 17.6127 12.3968 17.5345H12.3745Z" fill="#323232"/>
</g>
<defs>
<clipPath id="clip0_3317_2047">
<rect width="19.2" height="19.2" fill="white" transform="translate(2.40039 2.40039)"/>
</clipPath>
</defs>
</svg>
