<svg width="32" height="32" viewBox="0 0 24 24" fill="none" xmlns="http://www.w3.org/2000/svg">
<g clip-path="url(#clip0_3317_2902)">
<path d="M17.9593 2.95801H6.04171C4.33917 2.95801 2.95898 4.33819 2.95898 6.04073V17.9584C2.95898 19.6609 4.33917 21.0411 6.04171 21.0411H17.9593C19.6619 21.0411 21.0421 19.6609 21.0421 17.9584V6.04073C21.0421 4.33819 19.6619 2.95801 17.9593 2.95801Z" fill="white" stroke="#323232" stroke-width="1.11693" stroke-miterlimit="10"/>
<path d="M8.045 10.04C8.02 10.19 8 10.34 8 10.5C8 10.345 8.02 10.19 8.045 10.04ZM8 13.5C8 13.66 8.02 13.81 8.045 13.96C8.02 13.81 8 13.655 8 13.5ZM10.045 15.955C10.19 15.98 10.345 16 10.5 16C10.345 16 10.195 15.98 10.045 15.955ZM10.045 8.045C10.195 8.02 10.345 8 10.5 8C10.345 8 10.19 8.02 10.045 8.045ZM13.96 8.045C13.81 8.02 13.66 8 13.5 8C13.655 8 13.81 8.02 13.96 8.045ZM15.955 10.04C15.98 10.19 16 10.345 16 10.5C16 10.34 15.98 10.19 15.955 10.04Z" fill="#323232"/>
<path d="M17 10.15C17 10.36 16.835 10.525 16.625 10.525H16V11.4435C16 11.6103 15.819 11.7142 15.675 11.63C15.46 11.505 15.21 11.465 14.97 11.53C14.8161 11.5669 14.63 11.4675 14.63 11.3091V10.87C14.63 10.045 13.955 9.37 13.13 9.37H10.87C10.045 9.37 9.37 10.045 9.37 10.87V13.13C9.37 13.955 10.045 14.63 10.87 14.63H11.095C11.153 14.63 11.2 14.677 11.2 14.735C11.2 15.2168 11.5491 15.6218 12.0088 15.7149C12.0952 15.7324 12.1537 15.8358 12.125 15.9192C12.1086 15.9669 12.0651 16 12.0147 16H10.53V16.625C10.53 16.83 10.36 17 10.155 17C9.945 17 9.78 16.83 9.78 16.625V15.89C8.98 15.645 8.355 15.02 8.115 14.225H7.375C7.17 14.225 7 14.055 7 13.85C7 13.64 7.17 13.475 7.375 13.475H8V12.375H7.375C7.17 12.375 7 12.205 7 12C7 11.79 7.17 11.625 7.375 11.625H8V10.525H7.375C7.17 10.525 7 10.36 7 10.15C7 9.945 7.17 9.775 7.375 9.775H8.115C8.355 8.98 8.98 8.355 9.78 8.11V7.375C9.78 7.17 9.945 7 10.155 7C10.36 7 10.53 7.17 10.53 7.375V8H11.625V7.375C11.625 7.17 11.795 7 12 7C12.205 7 12.375 7.17 12.375 7.375V8H13.475V7.375C13.475 7.17 13.645 7 13.85 7C14.055 7 14.225 7.17 14.225 7.375V8.115C15.02 8.355 15.645 8.98 15.885 9.775H16.625C16.835 9.775 17 9.945 17 10.15Z" fill="#323232"/>
<path d="M16.4952 13.7648C16.1552 13.7648 15.9602 13.5948 15.9602 13.3448C15.9602 13.2448 15.9902 13.1298 16.0602 13.0098C16.2002 12.7698 16.1152 12.4598 15.8752 12.3248L15.4202 12.0598C15.2102 11.9348 14.9402 12.0098 14.8152 12.2198L14.7852 12.2698C14.5452 12.6848 14.1552 12.6848 13.9152 12.2698L13.8852 12.2198C13.7652 12.0098 13.4902 11.9348 13.2852 12.0598L12.8252 12.3248C12.6652 12.4148 12.5702 12.5848 12.5702 12.7598C12.5702 12.8448 12.5952 12.9298 12.6402 13.0098C12.7102 13.1298 12.7452 13.2448 12.7452 13.3448C12.7452 13.5948 12.5452 13.7648 12.2052 13.7648C11.9302 13.7648 11.7002 13.9898 11.7002 14.2648V14.7348C11.7002 15.0098 11.9302 15.2348 12.2052 15.2348C12.5452 15.2348 12.7452 15.4048 12.7452 15.6548C12.7452 15.7548 12.7102 15.8698 12.6402 15.9898C12.5002 16.2298 12.5852 16.5398 12.8252 16.6748L13.2852 16.9398C13.4902 17.0648 13.7652 16.9898 13.8852 16.7798L13.9152 16.7298C14.1552 16.3148 14.5452 16.3148 14.7852 16.7298L14.8152 16.7798C14.9402 16.9898 15.2102 17.0648 15.4202 16.9398L15.8752 16.6748C16.0352 16.5848 16.1302 16.4148 16.1302 16.2398C16.1302 16.1548 16.1052 16.0698 16.0602 15.9898C15.9902 15.8698 15.9602 15.7548 15.9602 15.6548C15.9602 15.4048 16.1552 15.2348 16.4952 15.2348C16.7752 15.2348 17.0002 15.0098 17.0002 14.7348V14.2648C17.0002 13.9898 16.7752 13.7648 16.4952 13.7648ZM14.3502 15.3598C13.8752 15.3598 13.4902 14.9748 13.4902 14.4998C13.4902 14.0248 13.8752 13.6398 14.3502 13.6398C14.8252 13.6398 15.2102 14.0248 15.2102 14.4998C15.2102 14.9748 14.8252 15.3598 14.3502 15.3598Z" fill="#323232"/>
<path d="M14.125 11.01V11.2963C14.125 11.4633 13.9024 11.5692 13.74 11.53C13.49 11.465 13.24 11.5 13.035 11.625L12.58 11.89C12.265 12.065 12.07 12.4 12.07 12.76C12.07 12.7898 12.0712 12.8198 12.0738 12.8498C12.0901 13.0429 11.9551 13.2773 11.7797 13.3595C11.5384 13.4727 11.3489 13.6789 11.2583 13.9312C11.2195 14.0393 11.1248 14.125 11.01 14.125C10.38 14.125 9.875 13.62 9.875 12.99V11.01C9.875 10.38 10.38 9.875 11.01 9.875H12.99C13.62 9.875 14.125 10.38 14.125 11.01Z" fill="#323232"/>
</g>
<defs>
<clipPath id="clip0_3317_2902">
<rect width="19.2" height="19.2" fill="white" transform="translate(2.40039 2.40039)"/>
</clipPath>
</defs>
</svg>
