<svg width="32" height="32" viewBox="0 0 24 24" fill="none" xmlns="http://www.w3.org/2000/svg">
<g clip-path="url(#clip0_3317_1998)">
<rect x="2" y="2" width="20" height="20" rx="4" fill="white"/>
<path d="M2 11.5704V8.39343L9.89628 2H13.8201L2 11.5704Z" fill="#B1B1B1"/>
<path d="M2 17.3406V14.1642L17.031 2H18.4198C19.1088 2 19.7524 2.19467 20.2986 2.53201L2 17.3406Z" fill="#B1B1B1"/>
<path d="M3.90005 21.5821C3.1543 21.185 2.5656 20.5319 2.25128 19.74L21.6523 4.0392C21.8752 4.50594 22 5.02852 22 5.58025V6.93421L3.90005 21.5821Z" fill="#B1B1B1"/>
<path d="M10.6224 22H6.69864L22 9.61085V12.7879L10.6224 22Z" fill="#B1B1B1"/>
<path d="M17.7565 22H13.8306L22 15.3913V18.4198C22 18.47 21.999 18.52 21.9969 18.5697L17.7565 22Z" fill="#B1B1B1"/>
<path d="M6.69154 2L2 5.79675V5.58025C2 3.60293 3.60293 2 5.58025 2H6.69154Z" fill="#B1B1B1"/>
</g>
<defs>
<clipPath id="clip0_3317_1998">
<rect x="2" y="2" width="20" height="20" rx="4" fill="white"/>
</clipPath>
</defs>
</svg>
