<svg width="32" height="32" viewBox="0 0 24 24" fill="none" xmlns="http://www.w3.org/2000/svg">
<g clip-path="url(#clip0_3317_2816)">
<path d="M18.3273 2.40039H5.67352C3.86582 2.40039 2.40039 3.86582 2.40039 5.67352V18.3273C2.40039 20.135 3.86582 21.6004 5.67352 21.6004H18.3273C20.135 21.6004 21.6004 20.135 21.6004 18.3273V5.67352C21.6004 3.86582 20.135 2.40039 18.3273 2.40039Z" fill="#D4D4D4"/>
<path d="M8.19775 6.94274H7.81826C7.5455 6.94274 7.33203 7.1562 7.33203 7.42896V8.03378C7.33203 8.30654 7.5455 8.52001 7.81826 8.52001H8.19775M8.19775 9.78922H7.81826C7.5455 9.78922 7.33203 10.0027 7.33203 10.2754V10.8803C7.33203 11.153 7.5455 11.3665 7.81826 11.3665H8.19775M8.19775 12.6351H7.81826C7.5455 12.6351 7.33203 12.8486 7.33203 13.1213V13.7262C7.33203 13.9989 7.5455 14.2124 7.81826 14.2124H8.19775M8.19775 15.4816H7.81826C7.5455 15.4816 7.33203 15.6951 7.33203 15.9678V16.5726C7.33203 16.8454 7.5455 17.0589 7.81826 17.0589H8.19775M15.8457 17.0589H16.2252C16.498 17.0589 16.7114 16.8454 16.7114 16.5726V15.9678C16.7114 15.6951 16.498 15.4816 16.2252 15.4816H15.8457M15.8457 14.2124H16.2252C16.498 14.2124 16.7114 13.9989 16.7114 13.7262V13.1213C16.7114 12.8486 16.498 12.6351 16.2252 12.6351H15.8457M15.8457 11.3665H16.2252C16.498 11.3665 16.7114 11.153 16.7114 10.8803V10.2754C16.7114 10.0027 16.498 9.78922 16.2252 9.78922H15.8457M15.8457 8.52001H16.2252C16.498 8.52001 16.7114 8.30654 16.7114 8.03378V7.42896C16.7114 7.1562 16.498 6.94274 16.2252 6.94274H15.8457M14.843 18.2117L9.11505 18.1847L9.17345 5.79199L14.9014 5.81898L14.843 18.2117Z" stroke="#323232" stroke-width="0.592959" stroke-miterlimit="10"/>
</g>
<defs>
<clipPath id="clip0_3317_2816">
<rect width="19.2" height="19.2" fill="white" transform="translate(2.40039 2.40039)"/>
</clipPath>
</defs>
</svg>
