<svg width="32" height="32" viewBox="0 0 24 24" fill="none" xmlns="http://www.w3.org/2000/svg">
<g clip-path="url(#clip0_3317_150)">
<path d="M17.9593 2.95898H6.04171C4.33917 2.95898 2.95898 4.33917 2.95898 6.04171V17.9593C2.95898 19.6619 4.33917 21.0421 6.04171 21.0421H17.9593C19.6619 21.0421 21.0421 19.6619 21.0421 17.9593V6.04171C21.0421 4.33917 19.6619 2.95898 17.9593 2.95898Z" fill="white" stroke="#323232" stroke-width="1.11693" stroke-miterlimit="10"/>
<path d="M8.30762 7.14648L8.34113 7.45922L9.18999 16.8638H14.8081L15.0092 14.6076L15.6905 7.14648H8.30762ZM9.01128 7.81664L14.998 7.83898L14.8528 10.017C14.4284 10.1734 13.6577 10.2962 12.1275 9.84945C11.2675 9.60373 10.5862 9.51437 10.05 9.51437C9.97184 9.51437 9.90483 9.51437 9.82664 9.51437C9.5139 9.53671 9.3687 9.58139 9.15648 9.6484L8.98894 7.80547L9.01128 7.81664Z" fill="#323232"/>
</g>
<defs>
<clipPath id="clip0_3317_150">
<rect width="19.2" height="19.2" fill="white" transform="translate(2.40039 2.40039)"/>
</clipPath>
</defs>
</svg>
