<svg width="32" height="32" viewBox="0 0 24 24" fill="none" xmlns="http://www.w3.org/2000/svg">
<g clip-path="url(#clip0_3317_2856)">
<path d="M5.6745 2.96039H18.3282C19.8267 2.96039 21.0414 4.1751 21.0414 5.67352V18.3273C21.0414 19.8257 19.8267 21.0404 18.3282 21.0404H5.6745C4.17608 21.0404 2.96137 19.8257 2.96137 18.3273V5.67352C2.96137 4.1751 4.17608 2.96039 5.6745 2.96039Z" fill="white" stroke="#323232" stroke-width="1.12"/>
<path d="M10.4537 7.15683C10.4537 6.61131 10.1216 6.11323 9.62356 5.91162C9.11362 5.69816 8.53252 5.81675 8.15302 6.2081C7.76167 6.59945 7.65494 7.18055 7.85655 7.67864C8.07001 8.18858 8.55624 8.50878 9.10176 8.50878C9.84889 8.50878 10.4537 7.90396 10.4537 7.15683Z" fill="#323232"/>
<path d="M13.2529 7.15663C13.2529 7.70216 13.585 8.20024 14.0949 8.40185C14.6049 8.61531 15.186 8.49672 15.5655 8.10537C15.9568 7.71401 16.0636 7.13291 15.8501 6.63483C15.6366 6.12489 15.1385 5.80469 14.593 5.80469C13.8459 5.80469 13.2529 6.40951 13.2529 7.15663Z" fill="#323232"/>
<path d="M12.0663 14.9837H12.0781C12.5406 15.2683 13.0387 15.4818 13.5605 15.6241L13.8214 17.6639C13.857 17.9604 14.1061 18.1857 14.4025 18.1857H14.8057C15.1022 18.1857 15.3631 17.9604 15.3868 17.6639L15.6359 15.6241C16.1696 15.4818 16.6676 15.2683 17.1301 14.9718C17.3673 14.8295 17.4741 14.5331 17.3792 14.2722L16.0154 10.1333C15.8256 9.56406 15.292 9.18457 14.699 9.18457H14.4737C13.8807 9.18457 13.3471 9.56406 13.1573 10.1333L11.7935 14.2722C11.7105 14.5331 11.8172 14.8177 12.0544 14.96L12.0663 14.9837Z" fill="#323232"/>
<path d="M6.93164 10.9752L6.96722 12.9794C6.96722 13.2284 7.10953 13.4537 7.32299 13.5723L7.7262 13.7976L8.21243 17.723C8.24801 17.9839 8.46147 18.1855 8.73423 18.1855H9.48136C9.74226 18.1855 9.96759 17.9839 10.0032 17.723L10.4894 13.7976L10.8926 13.5723C11.1061 13.4537 11.2365 13.2284 11.2484 12.9794L11.284 10.9752C11.284 10.5008 11.1061 10.0501 10.7859 9.71809C10.4538 9.38604 10.0032 9.19629 9.54066 9.19629H8.69866C8.22429 9.19629 7.7855 9.38604 7.45344 9.71809C7.12139 10.0501 6.9435 10.5008 6.95536 10.9752H6.93164Z" fill="#323232"/>
</g>
<defs>
<clipPath id="clip0_3317_2856">
<rect width="19.2" height="19.2" fill="white" transform="translate(2.40039 2.40039)"/>
</clipPath>
</defs>
</svg>
