<svg width="24" height="26" viewBox="0 0 24 26" fill="none" xmlns="http://www.w3.org/2000/svg">
<rect y="0.580078" width="24" height="24.5268" rx="12" fill="#197A56"/>
<path d="M8.09595 8.69493C8.96912 7.89587 10.4617 8.37651 11.4548 7.73265C11.8544 7.4733 12.1241 7.05975 12.4428 6.70427C12.9613 6.1245 13.6716 5.67089 14.4489 5.64185C15.2262 5.61281 16.0444 6.10147 16.2282 6.85848C16.479 7.88986 15.5718 8.80208 14.7766 9.50301C14.6018 9.65722 14.4109 9.85348 14.4399 10.0858C14.4659 10.2931 14.6597 10.4363 14.8475 10.5274C15.6418 10.9139 16.6198 10.8538 17.3531 11.3475C18.0884 11.8431 18.3922 12.7704 18.551 13.6446C18.7288 14.6209 18.6899 15.8275 17.8477 16.3502C16.8057 16.998 15.2142 16.1359 14.31 16.966C13.8375 17.4006 13.7825 18.1155 13.5078 18.6963C13.0692 19.6245 11.9763 20.1913 10.9672 20.0131C9.95818 19.8348 9.12297 18.9286 9.02706 17.9063C9.00009 17.6209 9.02406 17.3245 8.93115 17.0531C8.65342 16.244 7.57444 16.252 6.73324 16.1038C4.66521 15.7404 5.4105 13.5695 6.07287 13.0488C7.56445 11.8782 6.81916 9.8635 8.09694 8.69493H8.09595Z" fill="white"/>
</svg>
