<svg width="24" height="25" viewBox="0 0 24 25" fill="none" xmlns="http://www.w3.org/2000/svg">
<rect y="0.175781" width="24" height="24.5268" rx="12" fill="#FF6000"/>
<path d="M18.5496 11.1441H17.9373C17.7814 10.416 17.4941 9.73691 17.1039 9.13034L17.5379 8.69532C17.7926 8.44002 17.7926 8.02747 17.5379 7.77218L16.6424 6.87456C16.3877 6.61927 15.9762 6.61927 15.7215 6.87456L15.2875 7.30958C14.6834 6.91847 14.0049 6.63152 13.2785 6.47426V5.86054C13.2785 5.50006 12.9871 5.20801 12.6275 5.20801H11.3602C11.0005 5.20801 10.7092 5.50006 10.7092 5.86054V6.47426C9.98279 6.6305 9.30532 6.91847 8.70017 7.30958L8.26618 6.87456C8.01149 6.61927 7.59991 6.61927 7.34522 6.87456L6.44973 7.77218C6.19504 8.02747 6.19504 8.44002 6.44973 8.69532L6.88372 9.13034C6.49353 9.73589 6.20726 10.416 6.05037 11.1441H5.4381C5.07848 11.1441 4.78711 11.4361 4.78711 11.7966V13.067C4.78711 13.4274 5.07848 13.7195 5.4381 13.7195H6.05037C6.20624 14.4476 6.49353 15.1267 6.88372 15.7332L6.44973 16.1683C6.19504 16.4236 6.19504 16.8361 6.44973 17.0914L7.34522 17.989C7.59991 18.2443 8.01149 18.2443 8.26618 17.989L8.70017 17.554C9.3043 17.9451 9.98279 18.2321 10.7092 18.3893V19.003C10.7092 19.3635 11.0005 19.6556 11.3602 19.6556H12.6275C12.9871 19.6556 13.2785 19.3635 13.2785 19.003V18.3893C14.0049 18.2331 14.6823 17.9451 15.2875 17.554L15.7215 17.989C15.9762 18.2443 16.3877 18.2443 16.6424 17.989L17.5379 17.0914C17.7926 16.8361 17.7926 16.4236 17.5379 16.1683L17.1039 15.7332C17.4941 15.1277 17.7804 14.4476 17.9373 13.7195H18.5496C18.9092 13.7195 19.2005 13.4274 19.2005 13.067V11.7966C19.2005 11.4361 18.9092 11.1441 18.5496 11.1441ZM11.9938 15.3646C10.3781 15.3646 9.06795 14.0514 9.06795 12.4318C9.06795 10.8122 10.3781 9.49898 11.9938 9.49898C13.6096 9.49898 14.9197 10.8122 14.9197 12.4318C14.9197 14.0514 13.6096 15.3646 11.9938 15.3646Z" fill="white"/>
</svg>
