<svg width="24" height="25" viewBox="0 0 24 25" fill="none" xmlns="http://www.w3.org/2000/svg">
<rect width="24" height="24.5268" rx="12" fill="#323232"/>
<path fill-rule="evenodd" clip-rule="evenodd" d="M6.50703 6.07324C6.37448 6.07324 6.26703 6.18069 6.26703 6.31324V11.717H4.80078V12.197H19.5008V11.717H18.0345V6.31324C18.0345 6.18069 17.9271 6.07324 17.7945 6.07324H6.50703ZM17.5545 11.717V6.55324H6.74703V11.717H17.5545Z" fill="white"/>
<path d="M10.5533 17.9685C10.5533 17.2431 11.2649 16.5022 12.1508 16.5022C13.0366 16.5022 13.7483 17.2431 13.7483 17.9685H14.2283C14.2283 16.9568 13.2801 16.0222 12.1508 16.0222C11.0215 16.0222 10.0733 16.9568 10.0733 17.9685H10.5533Z" fill="white"/>
<path d="M16.482 16.5022C15.5962 16.5022 14.8845 17.2431 14.8845 17.9685H14.4045C14.4045 16.9568 15.3528 16.0222 16.482 16.0222C17.6113 16.0222 18.5595 16.9568 18.5595 17.9685H18.0795C18.0795 17.2431 17.3679 16.5022 16.482 16.5022Z" fill="white"/>
<path d="M6.22203 17.9685C6.22203 17.2431 6.93367 16.5022 7.81953 16.5022C8.7054 16.5022 9.41703 17.2431 9.41703 17.9685H9.89703C9.89703 16.9568 8.94881 16.0222 7.81953 16.0222C6.69026 16.0222 5.74203 16.9568 5.74203 17.9685H6.22203Z" fill="white"/>
<path fill-rule="evenodd" clip-rule="evenodd" d="M6.72641 14.6476C6.72641 14.0439 7.21581 13.5545 7.81953 13.5545C8.42325 13.5545 8.91266 14.0439 8.91266 14.6476C8.91266 15.2513 8.42325 15.7407 7.81953 15.7407C7.21581 15.7407 6.72641 15.2513 6.72641 14.6476ZM7.81953 14.0345C7.48091 14.0345 7.20641 14.309 7.20641 14.6476C7.20641 14.9862 7.48091 15.2607 7.81953 15.2607C8.15815 15.2607 8.43266 14.9862 8.43266 14.6476C8.43266 14.309 8.15815 14.0345 7.81953 14.0345Z" fill="white"/>
<path fill-rule="evenodd" clip-rule="evenodd" d="M12.1508 13.5545C11.5471 13.5545 11.0577 14.0439 11.0577 14.6476C11.0577 15.2513 11.5471 15.7407 12.1508 15.7407C12.7545 15.7407 13.2439 15.2513 13.2439 14.6476C13.2439 14.0439 12.7545 13.5545 12.1508 13.5545ZM11.5377 14.6476C11.5377 14.309 11.8122 14.0345 12.1508 14.0345C12.4894 14.0345 12.7639 14.309 12.7639 14.6476C12.7639 14.9862 12.4894 15.2607 12.1508 15.2607C11.8122 15.2607 11.5377 14.9862 11.5377 14.6476Z" fill="white"/>
<path fill-rule="evenodd" clip-rule="evenodd" d="M15.3889 14.6476C15.3889 14.0439 15.8783 13.5545 16.482 13.5545C17.0857 13.5545 17.5752 14.0439 17.5752 14.6476C17.5752 15.2513 17.0857 15.7407 16.482 15.7407C15.8783 15.7407 15.3889 15.2513 15.3889 14.6476ZM16.482 14.0345C16.1434 14.0345 15.8689 14.309 15.8689 14.6476C15.8689 14.9862 16.1434 15.2607 16.482 15.2607C16.8207 15.2607 17.0952 14.9862 17.0952 14.6476C17.0952 14.309 16.8207 14.0345 16.482 14.0345Z" fill="white"/>
</svg>
