<svg width="24" height="25" viewBox="0 0 24 25" fill="none" xmlns="http://www.w3.org/2000/svg">
<rect y="0.0537109" width="24" height="24.5268" rx="12" fill="#FF54D4"/>
<path d="M15.1312 10.0014C15.1126 11.7142 13.7215 13.0967 12.0072 13.0967C10.293 13.0967 8.90181 11.7142 8.88321 10.0014H4.81445C4.83305 13.9644 8.04616 17.1714 12.0072 17.1714C15.9683 17.1714 19.1814 13.9644 19.2 10.0014H15.1312Z" fill="white"/>
<path d="M12.0072 12.5554C13.4157 12.5554 14.5575 11.4119 14.5575 10.0014C14.5575 8.59077 13.4157 7.44727 12.0072 7.44727C10.5987 7.44727 9.45691 8.59077 9.45691 10.0014C9.45691 11.4119 10.5987 12.5554 12.0072 12.5554Z" fill="white"/>
</svg>
