<svg width="24" height="25" viewBox="0 0 24 25" fill="none" xmlns="http://www.w3.org/2000/svg">
<rect width="24" height="24.5268" rx="12" fill="#322E81"/>
<path d="M18.4704 13.1915C17.8766 12.7948 17.2837 12.4773 16.6419 12.2605L16.6351 12.2587C16.6351 12.2587 16.6351 12.2527 16.6351 12.2501C16.6351 11.6091 16.5063 10.999 16.273 10.4432C16.4746 10.1842 16.6754 9.92432 16.8684 9.6593C17.0967 9.3461 17.2829 8.99331 17.4665 8.65171C17.6887 8.23955 17.9676 7.3636 17.2674 7.23109C16.8538 7.15279 16.4592 7.31456 16.0894 7.48407C15.7393 7.64497 15.4081 7.84288 15.088 8.05713C14.9285 8.16469 14.7714 8.27655 14.6153 8.39013L14.6076 8.39787C13.9855 7.97023 13.2545 7.68972 12.4651 7.60797C12.2214 7.02458 11.9468 6.45496 11.6208 5.91115C11.4509 5.6272 11.2664 5.30969 10.9696 5.14276C10.665 4.97153 10.3363 5.07909 10.1433 5.36046C9.74688 5.93869 9.8078 6.74149 9.84555 7.40577C9.85671 7.60969 9.8713 7.81362 9.89017 8.01669L9.90218 8.07262C9.10337 8.47273 8.43497 9.09656 7.97937 9.86237C6.95489 9.74105 5.65156 9.544 4.9008 10.4948C4.70259 10.8123 4.82186 11.209 5.05867 11.4869C5.33581 11.844 5.69189 12.0823 6.08744 12.3198C6.51988 12.553 6.9446 12.7587 7.37446 12.9411C7.45855 13.5098 7.64474 14.0442 7.91416 14.5269L7.86267 14.5742C7.44053 15.1077 6.98664 15.6532 6.785 16.3158C6.61512 16.8717 6.60568 17.696 7.3144 17.8552C7.70308 17.9429 8.09863 17.7863 8.45299 17.64C8.8228 17.4877 9.17115 17.2898 9.51179 17.0807C9.76576 16.925 10.0129 16.7598 10.2548 16.5877C10.731 16.7787 11.2458 16.8923 11.7847 16.9147L11.7941 16.9603C12.0344 17.6504 12.3235 18.3577 12.8297 18.8972C13.2304 19.3248 13.9108 19.7344 14.3965 19.1897C14.7877 18.7518 14.8152 18.072 14.8324 17.5153C14.8478 17.0033 14.8255 16.4913 14.7757 15.9819C15.2065 15.6567 15.578 15.2583 15.874 14.8057C16.702 14.8823 17.5008 14.9124 18.3494 14.8186C18.666 14.779 18.9826 14.6999 19.1405 14.3824C19.3781 13.8669 18.8633 13.4307 18.4678 13.1923L18.4704 13.1915Z" fill="white"/>
</svg>
